<svg width="43" height="43" viewBox="0 0 43 43" fill="none" xmlns="http://www.w3.org/2000/svg">
<path d="M23.587 0.15918C25.9494 0.165479 27.1485 0.178079 28.1837 0.207477L28.5911 0.222176C29.0615 0.238976 29.5255 0.259974 30.0862 0.285173C32.3205 0.390168 33.845 0.74295 35.1827 1.26162C36.5686 1.795 37.7361 2.51736 38.9037 3.6828C39.9719 4.73219 40.7982 6.00208 41.3249 7.40381C41.8435 8.74145 42.1963 10.266 42.3013 12.5024C42.3265 13.0609 42.3475 13.525 42.3643 13.9975L42.3769 14.4049C42.4084 15.438 42.421 16.637 42.4252 18.9994L42.4273 20.566V23.3168C42.4324 24.8485 42.4163 26.3802 42.379 27.9114L42.3664 28.3188C42.3496 28.7912 42.3286 29.2553 42.3034 29.8139C42.1984 32.0503 41.8414 33.5727 41.3249 34.9124C40.7982 36.3142 39.9719 37.5841 38.9037 38.6334C37.8543 39.7016 36.5844 40.5279 35.1827 41.0546C33.845 41.5733 32.3205 41.9261 30.0862 42.0311L28.5911 42.0941L28.1837 42.1067C27.1485 42.1361 25.9494 42.1508 23.587 42.155L22.0205 42.1571H19.2718C17.7394 42.1625 16.207 42.1464 14.6751 42.1088L14.2677 42.0962C13.7692 42.0773 13.2708 42.0556 12.7726 42.0311C10.5383 41.9261 9.01378 41.5733 7.67405 41.0546C6.27307 40.5277 5.00392 39.7014 3.95514 38.6334C2.88618 37.5843 2.05916 36.3144 1.53186 34.9124C1.01319 33.5748 0.660405 32.0503 0.555411 29.8139L0.492414 28.3188L0.481915 27.9114C0.443205 26.3802 0.425704 24.8485 0.429417 23.3168V18.9994C0.423605 17.4678 0.439006 15.9361 0.475615 14.4049L0.490314 13.9975C0.507113 13.525 0.528112 13.0609 0.553311 12.5024C0.658306 10.266 1.01109 8.74355 1.52976 7.40381C2.05829 6.0015 2.88676 4.73156 3.95724 3.6828C5.00541 2.61511 6.27382 1.78885 7.67405 1.26162C9.01378 0.74295 10.5362 0.390168 12.7726 0.285173C13.3312 0.259974 13.7973 0.238976 14.2677 0.222176L14.6751 0.209577C16.2063 0.172268 17.738 0.156167 19.2697 0.161279L23.587 0.15918ZM21.4284 10.6586C18.6437 10.6587 15.9731 11.7648 14.0041 13.7339C12.0351 15.7029 10.9289 18.3735 10.9289 21.1581C10.9289 23.9428 12.0351 26.6133 14.0041 28.5824C15.9731 30.5514 18.6437 31.6576 21.4284 31.6576C24.213 31.6576 26.8836 30.5514 28.8526 28.5824C30.8216 26.6133 31.9278 23.9428 31.9278 21.1581C31.9278 18.3735 30.8216 15.7029 28.8526 13.7339C26.8836 11.7648 24.213 10.6586 21.4284 10.6586ZM21.4284 14.8584C22.2556 14.8583 23.0749 15.0211 23.8392 15.3376C24.6036 15.654 25.2981 16.1179 25.8832 16.7028C26.4683 17.2877 26.9324 17.9821 27.2492 18.7464C27.5659 19.5106 27.729 20.3298 27.7291 21.1571C27.7292 21.9844 27.5664 22.8036 27.25 23.5679C26.9335 24.3323 26.4696 25.0268 25.8847 25.6119C25.2998 26.197 24.6054 26.6611 23.8412 26.9779C23.0769 27.2946 22.2577 27.4577 21.4305 27.4578C19.7597 27.4578 18.1573 26.7941 16.9759 25.6127C15.7945 24.4312 15.1308 22.8289 15.1308 21.1581C15.1308 19.4873 15.7945 17.885 16.9759 16.7036C18.1573 15.5222 19.7597 14.8584 21.4305 14.8584M32.4549 7.50881C31.7587 7.50881 31.0911 7.78536 30.5988 8.27761C30.1066 8.76987 29.83 9.43752 29.83 10.1337C29.83 10.8298 30.1066 11.4975 30.5988 11.9897C31.0911 12.482 31.7587 12.7585 32.4549 12.7585C33.1511 12.7585 33.8187 12.482 34.311 11.9897C34.8032 11.4975 35.0798 10.8298 35.0798 10.1337C35.0798 9.43752 34.8032 8.76987 34.311 8.27761C33.8187 7.78536 33.1511 7.50881 32.4549 7.50881Z" fill="#9FA88D"/>
</svg>
