<svg width="39" height="39" viewBox="0 0 39 39" fill="none" xmlns="http://www.w3.org/2000/svg">
<path d="M14.9644 8.47682C19.2597 12.7032 19.2964 19.8273 19.2964 19.8273C19.2964 19.8273 12.369 20.0991 8.07373 15.8727C3.77842 11.6464 3.7417 4.52227 3.7417 4.52227C3.7417 4.52227 10.6691 4.25046 14.9644 8.47682Z" fill="#F1F5F1"/>
<path d="M23.6284 8.47682C19.3331 12.7032 19.2964 19.8273 19.2964 19.8273C19.2964 19.8273 26.2237 20.0991 30.519 15.8727C34.8144 11.6464 34.8511 4.52227 34.8511 4.52227C34.8511 4.52227 27.9237 4.25046 23.6284 8.47682Z" fill="#F1F5F1"/>
<path d="M14.9644 31.1716C19.2597 26.9453 19.2964 19.8212 19.2964 19.8212C19.2964 19.8212 12.369 19.5494 8.07373 23.7757C3.77842 28.0021 3.7417 35.1262 3.7417 35.1262C3.7417 35.1262 10.6691 35.398 14.9644 31.1716Z" fill="#F1F5F1"/>
<path d="M23.6284 31.1716C19.3331 26.9453 19.2964 19.8212 19.2964 19.8212C19.2964 19.8212 26.2237 19.5494 30.519 23.7757C34.8144 28.0021 34.8511 35.1262 34.8511 35.1262C34.8511 35.1262 27.9237 35.398 23.6284 31.1716Z" fill="#F1F5F1"/>
</svg>
