<svg width="137" height="102" viewBox="0 0 137 102" fill="none" xmlns="http://www.w3.org/2000/svg">
<path d="M135.448 76.1365L135.279 77.2699L135.104 77.2294C133.905 82.8354 131.143 87.9874 127.139 92.0893C123.134 96.1912 118.049 99.0753 112.474 100.408C106.898 101.741 101.059 101.467 95.6321 99.6199C90.2053 97.7723 85.4124 94.4259 81.8082 89.968C78.204 85.51 75.9356 80.1226 75.2656 74.4291C74.5956 68.7357 75.5514 62.9689 78.0223 57.796C80.4932 52.6231 84.3782 48.2555 89.2279 45.1986C94.0776 42.1417 99.6937 40.5204 105.426 40.5224C106.931 40.5224 108.375 40.7517 109.812 40.9609C109.346 39.3957 108.867 37.8036 108.098 36.3733C107.329 34.2955 106.128 32.4942 104.934 30.6794C103.936 28.7162 102.175 27.3872 100.879 25.7073C99.5234 24.0747 97.6749 22.9885 96.2109 21.6325C94.7739 20.2158 92.8917 19.5074 91.394 18.5089C89.8288 17.6117 88.4661 16.6199 87.0089 16.1477L83.3726 14.65L80.1748 13.321L83.44 0.239746L87.4676 1.21124C88.7562 1.53506 90.3281 1.91286 92.1159 2.36486C93.9441 2.70218 95.8938 3.62643 98.0662 4.46973C100.205 5.43446 102.694 6.07536 105.001 7.62029C107.322 9.09099 110.001 10.3188 112.362 12.2888C114.649 14.3194 117.408 16.0802 119.445 18.6574C121.672 21.0726 123.871 23.6092 125.578 26.4966C127.555 29.2492 128.897 32.2715 130.314 35.2602C131.596 38.2488 132.628 41.3049 133.471 44.2733C135.07 50.2236 135.785 55.8771 136.062 60.7143C136.291 65.5582 136.156 69.5857 135.873 72.5002C135.778 73.7173 135.636 74.9303 135.448 76.1365ZM61.2377 76.1365L61.069 77.2699L60.8936 77.2294C59.6949 82.8354 56.9333 87.9874 52.9285 92.0893C48.9237 96.1912 43.8393 99.0753 38.2636 100.408C32.6879 101.741 26.8488 101.467 21.422 99.6199C15.9951 97.7723 11.2023 94.4259 7.59807 89.968C3.99382 85.51 1.72547 80.1226 1.05548 74.4291C0.385482 68.7357 1.34122 62.9689 3.81212 57.796C6.28302 52.6231 10.1681 48.2555 15.0178 45.1986C19.8675 42.1417 25.4836 40.5204 31.2163 40.5224C32.7208 40.5224 34.1645 40.7517 35.6015 40.9609C35.136 39.3957 34.657 37.8036 33.8879 36.3733C33.1188 34.2955 31.918 32.4942 30.7238 30.6794C29.7254 28.7162 27.9646 27.3872 26.6693 25.7073C25.3133 24.0747 23.4647 22.9885 22.0008 21.6325C20.5638 20.2158 18.6816 19.5074 17.1839 18.5089C15.6187 17.6117 14.2559 16.6199 12.7987 16.1477L9.16243 14.65C7.13177 13.8202 5.97139 13.3345 5.97139 13.3345L9.23664 0.253242L13.2642 1.22472C14.5528 1.54855 16.1247 1.92635 17.9125 2.37836C19.7407 2.71568 21.6904 3.63993 23.8628 4.48323C26.0014 5.44796 28.4908 6.08886 30.7981 7.63378C33.1188 9.10449 35.7971 10.3323 38.1583 12.3023C40.4454 14.3329 43.2046 16.0937 45.2421 18.6708C47.4684 21.0861 49.6677 23.6227 51.3745 26.5101C53.3512 29.2627 54.6937 32.285 56.1105 35.2737C57.3923 38.2623 58.4245 41.3184 59.2678 44.2868C60.8667 50.2371 61.5818 55.8906 61.8584 60.7278C62.0877 65.5717 61.9528 69.5992 61.6695 72.5137C61.5687 73.726 61.4247 74.9344 61.2377 76.1365Z" fill="#F3E3EF"/>
</svg>
