<svg width="81" height="164" viewBox="0 0 81 164" fill="none" xmlns="http://www.w3.org/2000/svg">
<path d="M37.8839 147.005C36.2427 141.943 33.5833 136.5 29.2745 132.196C18.1151 121.049 0.117432 121.766 0.117432 121.766C0.117432 121.766 0.212826 140.556 11.3723 151.703C19.9166 160.238 32.4697 161.817 37.8839 162.089V163.411H43.3162V162.085C48.7746 161.801 61.244 160.194 69.7451 151.703C80.9046 140.556 81 121.766 81 121.766C81 121.766 63.0023 121.049 51.8428 132.196C47.6058 136.428 44.9637 141.763 43.3162 146.752V122.07C48.7746 121.786 61.244 120.179 69.7451 111.688C80.9046 100.541 81 81.7508 81 81.7508C81 81.7508 63.0023 81.0339 51.8428 92.181C47.6058 96.4134 44.9637 101.748 43.3162 106.737L43.3162 82.055C48.7746 81.7713 61.244 80.1645 69.7451 71.6728C80.9046 60.5257 81 41.7358 81 41.7358C81 41.7358 63.0023 41.0189 51.8428 52.166C47.6058 56.3984 44.9637 61.7326 43.3162 66.7218V42.0399C48.7746 41.7563 61.244 40.1494 69.7451 31.6578C80.9046 20.5107 81 1.72076 81 1.72076C81 1.72076 63.0023 1.00388 51.8428 12.151C47.6058 16.3834 44.9637 21.7176 43.3162 26.7068V0.442627H37.8839V26.9597C36.2427 21.8984 33.5833 16.455 29.2745 12.151C18.1151 1.00388 0.117432 1.72076 0.117432 1.72076C0.117432 1.72076 0.212826 20.5107 11.3723 31.6578C19.9166 40.1926 32.4697 41.7724 37.8839 42.0442V66.9747C36.2427 61.9134 33.5833 56.47 29.2745 52.166C18.1151 41.0189 0.117432 41.7358 0.117432 41.7358C0.117432 41.7358 0.212826 60.5257 11.3723 71.6728C19.9166 80.2077 32.4697 81.7875 37.8839 82.0592L37.8839 106.99C36.2427 101.928 33.5833 96.485 29.2745 92.181C18.1151 81.0339 0.117432 81.7508 0.117432 81.7508C0.117432 81.7508 0.212826 100.541 11.3723 111.688C19.9166 120.223 32.4697 121.802 37.8839 122.074V147.005Z" fill="white"/>
</svg>
