<svg width="168" height="54" viewBox="0 0 168 54" fill="none" xmlns="http://www.w3.org/2000/svg">
<path d="M30.9094 29.4626C31.0027 29.2293 31.0727 28.8793 31.1194 28.4126C31.2127 27.8993 31.2594 27.456 31.2594 27.0826C31.2594 26.3826 31.1427 25.6593 30.9094 24.9126C30.676 24.166 30.2327 23.4893 29.5794 22.8826C28.9727 22.276 28.1327 21.786 27.0594 21.4126C26.0327 21.0393 24.6794 20.8526 22.9994 20.8526C21.646 20.8526 20.386 21.1326 19.2194 21.6926C18.0527 22.206 16.956 22.836 15.9294 23.5826C14.7627 24.4226 13.4327 25.6593 11.9394 27.2926C10.4927 28.926 9.11604 30.7693 7.80937 32.8226C6.5027 34.8293 5.40604 36.976 4.51937 39.2626C3.67937 41.5026 3.25937 43.696 3.25937 45.8426C3.25937 47.0093 3.46937 47.966 3.88937 48.7126C4.30937 49.4593 4.84604 50.0426 5.49937 50.4626C6.19937 50.8826 6.9927 51.186 7.87937 51.3726C8.76604 51.5126 9.67604 51.5826 10.6094 51.5826C14.5294 51.5826 18.0994 50.556 21.3194 48.5026C24.5394 46.4026 27.596 43.3693 30.4894 39.4026C30.6294 39.216 30.746 39.1226 30.8394 39.1226C31.026 39.1226 31.1194 39.4493 31.1194 40.1026C31.1194 40.476 31.0494 40.8026 30.9094 41.0826C30.816 41.316 30.6994 41.5493 30.5594 41.7826C28.4127 45.0026 25.566 47.546 22.0194 49.4126C18.5194 51.2326 14.6694 52.1426 10.4694 52.1426C9.11604 52.1426 7.80937 52.0026 6.54937 51.7226C5.33604 51.4893 4.23937 51.0693 3.25937 50.4626C2.32604 49.8093 1.57937 48.9693 1.01937 47.9426C0.45937 46.8693 0.17937 45.5393 0.17937 43.9526C0.17937 42.1793 0.506037 40.3593 1.15937 38.4926C1.85937 36.626 2.74604 34.8293 3.81937 33.1026C4.8927 31.376 6.0827 29.766 7.38937 28.2726C8.7427 26.7793 10.096 25.5193 11.4494 24.4926C13.1294 23.186 14.996 22.1593 17.0494 21.4126C19.1027 20.6193 21.2494 20.2226 23.4894 20.2226C25.1694 20.2226 26.8727 20.4093 28.5994 20.7826C30.3727 21.1093 32.006 21.716 33.4994 22.6026C33.8727 22.7893 34.0594 23.0693 34.0594 23.4426C33.7327 24.0026 33.3127 24.8893 32.7994 26.1026C32.286 27.2693 31.866 28.3193 31.5394 29.2526L30.9094 29.4626ZM77.6705 5.31263C77.6705 6.0593 77.6238 6.61929 77.5305 6.99263C77.4838 7.36596 77.4138 7.62263 77.3205 7.76263C77.2738 7.90263 77.2038 7.94929 77.1105 7.90263C77.0638 7.8093 77.0405 7.71596 77.0405 7.62263C77.0405 7.29596 76.9471 6.85263 76.7605 6.29263C76.6205 5.73263 76.2938 5.19596 75.7805 4.68263C75.3138 4.12263 74.6371 3.65596 73.7505 3.28263C72.8638 2.86263 71.7205 2.65263 70.3205 2.65263C69.1071 2.65263 67.8471 2.83929 66.5405 3.21263C65.2805 3.5393 63.9038 4.21596 62.4105 5.24263C60.9171 6.22263 59.3071 7.59929 57.5805 9.37263C55.9005 11.146 54.0571 13.456 52.0505 16.3026C50.0438 19.1026 47.8505 22.5326 45.4705 26.5926C43.1371 30.606 40.5705 35.366 37.7705 40.8726C38.0971 40.5926 38.6105 40.1726 39.3105 39.6126C40.0105 39.0526 40.7805 38.4926 41.6205 37.9326C42.4605 37.3726 43.2771 36.8826 44.0705 36.4626C44.8638 36.0426 45.5405 35.8326 46.1005 35.8326C46.5205 35.8326 46.7305 35.996 46.7305 36.3226C46.7305 36.6026 46.5205 37.0226 46.1005 37.5826C45.7271 38.1426 45.2371 38.9126 44.6305 39.8926C44.0238 40.8726 43.4171 41.9226 42.8105 43.0426C42.2505 44.1626 41.7605 45.2593 41.3405 46.3326C40.9205 47.406 40.7105 48.2693 40.7105 48.9226C40.7105 49.6693 40.8971 50.2293 41.2705 50.6026C41.6438 50.976 42.1571 51.1626 42.8105 51.1626C43.8838 51.1626 45.4005 50.4626 47.3605 49.0626C49.3205 47.6626 51.5605 45.2826 54.0805 41.9226C54.1738 41.8293 54.2671 41.7826 54.3605 41.7826C54.4538 41.7826 54.5005 41.876 54.5005 42.0626C53.6138 43.3226 52.5638 44.5826 51.3505 45.8426C50.1838 47.1026 48.9705 48.246 47.7105 49.2726C46.4971 50.2993 45.2605 51.116 44.0005 51.7226C42.7871 52.376 41.6671 52.7026 40.6405 52.7026C39.8471 52.7026 39.2171 52.4693 38.7505 52.0026C38.2838 51.5826 38.0505 50.976 38.0505 50.1826C38.0505 49.436 38.3071 48.4793 38.8205 47.3126C39.3338 46.146 39.8938 44.9793 40.5005 43.8126C41.1538 42.5993 41.7371 41.5026 42.2505 40.5226C42.7638 39.496 43.0205 38.7726 43.0205 38.3526C43.0205 38.1193 42.9505 38.0026 42.8105 38.0026C42.3905 38.0026 41.6205 38.3993 40.5005 39.1926C39.4271 39.986 38.0738 41.4793 36.4405 43.6726C35.7871 44.8393 35.1105 46.0526 34.4105 47.3126C33.7105 48.5726 33.1038 49.6926 32.5905 50.6726C32.2171 51.4193 31.8671 51.7926 31.5405 51.7926C31.3071 51.7926 31.0038 51.7226 30.6305 51.5826C30.2571 51.4893 30.0705 51.2793 30.0705 50.9526C30.0705 50.7193 30.1405 50.4626 30.2805 50.1826C32.2405 46.636 34.1538 43.2993 36.0205 40.1726C37.8871 36.9993 39.7771 33.896 41.6905 30.8626C43.9305 27.3626 46.2405 23.7926 48.6205 20.1526C51.0471 16.5126 53.5205 13.1993 56.0405 10.2126C58.5605 7.22596 61.1038 4.7993 63.6705 2.93263C66.2838 1.0193 68.8971 0.0626292 71.5105 0.0626292C72.1638 0.0626292 72.8405 0.155962 73.5405 0.342629C74.2405 0.482628 74.8938 0.739294 75.5005 1.11263C76.1538 1.48596 76.6671 2.02263 77.0405 2.72263C77.4605 3.37596 77.6705 4.2393 77.6705 5.31263ZM74.7316 41.8526C73.6582 43.1593 72.4682 44.4893 71.1616 45.8426C69.9016 47.1493 68.6182 48.3393 67.3116 49.4126C66.0049 50.486 64.6982 51.3493 63.3916 52.0026C62.1316 52.656 60.9649 52.9826 59.8916 52.9826C58.9582 52.9826 58.3049 52.7493 57.9316 52.2826C57.5582 51.816 57.3716 51.2326 57.3716 50.5326C57.3716 49.8793 57.5582 49.016 57.9316 47.9426C58.3516 46.8226 58.9582 45.6326 59.7516 44.3726C59.1449 45.166 58.4449 46.006 57.6516 46.8926C56.8582 47.7793 56.0416 48.596 55.2016 49.3426C54.3616 50.0426 53.5216 50.6493 52.6816 51.1626C51.8416 51.6293 51.0949 51.8626 50.4416 51.8626C49.4616 51.8626 48.9716 51.3726 48.9716 50.3926C48.9716 49.3193 49.3916 47.966 50.2316 46.3326C51.0716 44.6993 52.1916 43.136 53.5916 41.6426C55.0382 40.1026 56.6716 38.796 58.4916 37.7226C60.3116 36.6026 62.2016 36.0426 64.1616 36.0426C64.3949 35.576 64.6049 35.2493 64.7916 35.0626C64.9782 34.876 65.1649 34.736 65.3516 34.6426L67.3116 34.0826L67.4516 34.1526C67.2182 34.386 66.9849 34.6893 66.7516 35.0626C66.5649 35.3893 66.3549 35.7393 66.1216 36.1126C66.3549 36.1126 66.7049 36.136 67.1716 36.1826C67.6382 36.2293 67.9882 36.276 68.2216 36.3226C68.4549 36.416 68.5716 36.5326 68.5716 36.6726C68.5716 36.8126 68.5016 36.8826 68.3616 36.8826C68.0816 36.7893 67.6616 36.7193 67.1016 36.6726C66.5416 36.626 66.1216 36.6026 65.8416 36.6026C63.6949 40.3826 62.1082 43.3926 61.0816 45.6326C60.1016 47.826 59.6116 49.4593 59.6116 50.5326C59.6116 50.9526 59.7049 51.3026 59.8916 51.5826C60.1249 51.8626 60.5682 52.0026 61.2216 52.0026C61.9682 52.0026 62.8549 51.746 63.8816 51.2326C64.9082 50.6726 66.0049 49.926 67.1716 48.9926C68.3382 48.0126 69.5282 46.8926 70.7416 45.6326C72.0016 44.3726 73.1916 43.0426 74.3116 41.6426C74.4049 41.5026 74.4982 41.4793 74.5916 41.5726C74.6849 41.6193 74.7316 41.7126 74.7316 41.8526ZM63.8116 36.5326C62.2249 36.5326 60.7082 37.0926 59.2616 38.2126C57.8149 39.3326 56.5316 40.6626 55.4116 42.2026C54.2916 43.696 53.3816 45.1893 52.6816 46.6826C52.0282 48.176 51.7016 49.2726 51.7016 49.9726C51.7016 50.346 51.8416 50.5326 52.1216 50.5326C52.4016 50.5326 52.8216 50.346 53.3816 49.9726C53.9882 49.5993 54.6649 49.1093 55.4116 48.5026C56.1582 47.8493 56.9049 47.1026 57.6516 46.2626C58.4449 45.4226 59.1682 44.5126 59.8216 43.5326C60.5682 42.4126 61.2916 41.2226 61.9916 39.9626C62.6916 38.7026 63.3216 37.5826 63.8816 36.6026L63.8116 36.5326ZM92.5925 42.4126C91.7525 43.5793 90.7725 44.7693 89.6525 45.9826C88.5792 47.1493 87.4125 48.1993 86.1525 49.1326C84.9392 50.066 83.6792 50.836 82.3725 51.4426C81.1125 52.0493 79.8758 52.3526 78.6625 52.3526C78.1025 52.3526 77.5892 52.2593 77.1225 52.0726C76.6558 51.9326 76.4225 51.536 76.4225 50.8826C76.4225 50.2293 76.6558 49.4126 77.1225 48.4326C77.5892 47.406 78.1258 46.3326 78.7325 45.2126C79.3858 44.0926 80.0392 42.9493 80.6925 41.7826C81.3925 40.616 81.9525 39.5426 82.3725 38.5626C82.4658 38.3293 82.4658 38.1426 82.3725 38.0026C82.3258 37.816 82.1858 37.7926 81.9525 37.9326C81.4392 38.2593 80.8325 38.7026 80.1325 39.2626C79.4325 39.8226 78.7092 40.4293 77.9625 41.0826C77.2625 41.6893 76.5625 42.3193 75.8625 42.9726C75.2092 43.626 74.6725 44.2093 74.2525 44.7226C73.5058 45.8893 72.8525 46.9626 72.2925 47.9426C71.7792 48.9226 71.1258 50.0193 70.3325 51.2326C70.1458 51.5126 70.0058 51.6526 69.9125 51.6526C69.6792 51.6526 69.4692 51.396 69.2825 50.8826C69.1425 50.3693 69.0725 50.0426 69.0725 49.9026C69.0725 49.4826 69.3525 48.9226 69.9125 48.2226C70.5192 47.476 71.1725 46.6593 71.8725 45.7726C72.6192 44.2793 73.3892 42.716 74.1825 41.0826C74.9758 39.4026 75.6525 37.9093 76.2125 36.6026C76.3525 36.3693 76.5625 36.2526 76.8425 36.2526C77.1225 36.2526 77.3792 36.3693 77.6125 36.6026C77.8458 36.836 77.9625 37.0926 77.9625 37.3726C77.9625 37.5593 77.6125 38.2126 76.9125 39.3326C76.2592 40.406 75.6058 41.666 74.9525 43.1126C75.8392 42.3193 76.7958 41.4793 77.8225 40.5926C78.8958 39.706 79.8992 38.8893 80.8325 38.1426C81.8125 37.396 82.6525 36.7893 83.3525 36.3226C84.0992 35.8093 84.6125 35.5526 84.8925 35.5526C85.0792 35.5526 85.2425 35.6693 85.3825 35.9026C85.5692 36.0893 85.6625 36.276 85.6625 36.4626C85.6625 36.6493 85.5458 36.9293 85.3125 37.3026C84.7992 38.0493 84.1692 39.006 83.4225 40.1726C82.6758 41.3393 81.9525 42.5526 81.2525 43.8126C80.5992 45.026 80.0392 46.1926 79.5725 47.3126C79.1058 48.4326 78.8725 49.3193 78.8725 49.9726C78.8725 50.5326 78.9892 50.9293 79.2225 51.1626C79.4558 51.3493 79.8292 51.4426 80.3425 51.4426C81.1358 51.4426 82.0692 51.1393 83.1425 50.5326C84.2158 49.926 85.3125 49.1793 86.4325 48.2926C87.5992 47.3593 88.6958 46.3326 89.7225 45.2126C90.7492 44.0926 91.5892 43.0193 92.2425 41.9926C92.3358 41.8526 92.4758 41.8293 92.6625 41.9226C92.8492 41.9693 92.8258 42.1326 92.5925 42.4126ZM105.188 25.8926C104.815 25.986 104.395 26.1726 103.928 26.4526C103.461 26.686 103.111 26.9893 102.878 27.3626C101.805 28.856 100.755 30.4193 99.7281 32.0526C98.7481 33.686 97.7915 35.3193 96.8581 36.9526H105.538C105.678 37.046 105.748 37.1393 105.748 37.2326C105.748 37.326 105.701 37.396 105.608 37.4426C105.235 37.4426 104.675 37.466 103.928 37.5126C103.181 37.5126 102.365 37.536 101.478 37.5826C100.591 37.6293 99.6815 37.676 98.7481 37.7226C97.8148 37.7693 96.9981 37.816 96.2981 37.8626C94.9915 40.196 93.9881 42.1793 93.2881 43.8126C92.5881 45.446 92.2381 46.8693 92.2381 48.0826C92.2381 49.7626 93.0081 50.6026 94.5481 50.6026C95.2948 50.6026 96.1348 50.416 97.0681 50.0426C98.0481 49.6226 99.0748 49.086 100.148 48.4326C100.288 48.2926 100.428 48.316 100.568 48.5026C100.708 48.6426 100.661 48.7593 100.428 48.8526C98.8415 49.8793 97.3715 50.626 96.0181 51.0926C94.6648 51.5593 93.2881 51.7926 91.8881 51.7926C91.1415 51.7926 90.4881 51.5826 89.9281 51.1626C89.3681 50.696 89.0881 49.926 89.0881 48.8526C89.0881 47.9193 89.5081 46.5426 90.3481 44.7226C91.1881 42.9026 92.4248 40.6626 94.0581 38.0026C93.4981 38.0493 92.7981 38.1193 91.9581 38.2126C91.1648 38.2593 90.6981 38.2826 90.5581 38.2826C90.3248 38.2826 90.2081 38.1893 90.2081 38.0026C90.3948 37.676 90.6981 37.3493 91.1181 37.0226L94.6881 36.9526C95.1081 36.2526 95.5748 35.4826 96.0881 34.6426C96.6015 33.756 97.1148 32.8926 97.6281 32.0526C98.1415 31.166 98.6548 30.326 99.1681 29.5326C99.7281 28.6926 100.218 27.9226 100.638 27.2226C101.151 26.9893 101.851 26.686 102.738 26.3126C103.671 25.9393 104.488 25.636 105.188 25.4026C105.281 25.4026 105.351 25.4726 105.398 25.6126C105.445 25.706 105.375 25.7993 105.188 25.8926ZM120.381 43.1126C119.588 44.0926 118.631 45.1193 117.511 46.1926C116.438 47.2193 115.248 48.176 113.941 49.0626C112.681 49.9026 111.351 50.6026 109.951 51.1626C108.598 51.676 107.245 51.9326 105.891 51.9326C103.698 51.9326 102.601 50.9526 102.601 48.9926C102.601 47.686 102.928 46.286 103.581 44.7926C104.281 43.2526 105.168 41.8526 106.241 40.5926C107.315 39.286 108.481 38.2126 109.741 37.3726C111.048 36.486 112.285 36.0426 113.451 36.0426C114.105 36.0426 114.548 36.1593 114.781 36.3926C115.061 36.626 115.201 36.9293 115.201 37.3026C115.201 37.8626 115.015 38.4693 114.641 39.1226C114.315 39.776 113.801 40.406 113.101 41.0126C112.401 41.5726 111.515 42.0626 110.441 42.4826C109.368 42.856 108.085 43.0426 106.591 43.0426C106.358 43.4626 106.101 44.1393 105.821 45.0726C105.541 45.9593 105.401 46.8693 105.401 47.8026C105.401 49.716 106.265 50.6726 107.991 50.6726C109.065 50.6726 110.161 50.416 111.281 49.9026C112.448 49.3893 113.568 48.7593 114.641 48.0126C115.715 47.2193 116.695 46.3793 117.581 45.4926C118.515 44.5593 119.285 43.696 119.891 42.9026C119.985 42.8093 120.078 42.786 120.171 42.8326C120.311 42.8793 120.381 42.9726 120.381 43.1126ZM113.031 37.6526C113.031 37.046 112.728 36.7426 112.121 36.7426C111.655 36.7426 111.165 36.9293 110.651 37.3026C110.185 37.6293 109.718 38.0726 109.251 38.6326C108.785 39.1926 108.341 39.7993 107.921 40.4526C107.501 41.106 107.151 41.736 106.871 42.3426C106.965 42.3893 107.128 42.436 107.361 42.4826C107.595 42.4826 107.781 42.4826 107.921 42.4826C109.275 42.4826 110.465 42.016 111.491 41.0826C112.518 40.1026 113.031 38.9593 113.031 37.6526ZM158.397 14.5526C158.397 15.6726 157.744 17.376 156.437 19.6626C155.177 21.9493 153.45 24.5393 151.257 27.4326C149.11 30.2793 146.59 33.2426 143.697 36.3226C140.804 39.4026 137.747 42.3193 134.527 45.0726C134.2 46.2393 134.037 47.4526 134.037 48.7126C134.037 50.066 134.364 51.046 135.017 51.6526C135.67 52.306 136.58 52.6326 137.747 52.6326C139.054 52.6326 140.384 52.2826 141.737 51.5826C143.137 50.9293 144.467 50.0893 145.727 49.0626C146.987 48.036 148.154 46.9626 149.227 45.8426C150.3 44.676 151.21 43.6493 151.957 42.7626C152.097 42.6226 152.19 42.5993 152.237 42.6926C152.284 42.786 152.284 42.9493 152.237 43.1826C151.257 44.4426 150.137 45.7026 148.877 46.9626C147.617 48.2226 146.24 49.366 144.747 50.3926C143.3 51.4193 141.784 52.2593 140.197 52.9126C138.61 53.566 137 53.8926 135.367 53.8926C132.474 53.8926 131.027 52.4926 131.027 49.6926C131.027 49.0393 131.097 48.2926 131.237 47.4526C130.677 47.826 130 48.2693 129.207 48.7826C128.414 49.296 127.55 49.786 126.617 50.2526C125.73 50.6726 124.774 51.046 123.747 51.3726C122.72 51.6993 121.694 51.8626 120.667 51.8626C119.594 51.8626 118.894 51.536 118.567 50.8826C118.287 50.1826 118.147 49.436 118.147 48.6426C118.147 47.616 118.404 46.3093 118.917 44.7226C119.477 43.136 120.2 41.4326 121.087 39.6126C121.974 37.746 123 35.8093 124.167 33.8026C125.334 31.796 126.547 29.8826 127.807 28.0626C129.114 26.196 130.397 24.4693 131.657 22.8826C132.917 21.2493 134.107 19.896 135.227 18.8226C136.3 17.7493 137.56 16.816 139.007 16.0226C140.454 15.2293 141.924 14.8326 143.417 14.8326C144.63 14.8326 145.61 15.0426 146.357 15.4626C147.104 15.8826 147.477 16.3726 147.477 16.9326C147.477 16.9793 147.43 17.1426 147.337 17.4226C147.29 17.656 147.197 17.936 147.057 18.2626C146.964 18.5893 146.847 18.9393 146.707 19.3126C146.614 19.6393 146.497 19.9426 146.357 20.2226C147.057 19.3826 147.827 18.5193 148.667 17.6326C149.507 16.6993 150.347 15.8593 151.187 15.1126C152.074 14.3193 152.96 13.666 153.847 13.1526C154.734 12.6393 155.574 12.3826 156.367 12.3826C157.72 12.3826 158.397 13.106 158.397 14.5526ZM156.227 16.0226C156.227 15.556 156.134 15.1126 155.947 14.6926C155.76 14.226 155.34 13.9926 154.687 13.9926C153.707 13.9926 152.307 14.856 150.487 16.5826C148.667 18.2626 146.754 20.5026 144.747 23.3026C142.74 26.1026 140.827 29.3226 139.007 32.9626C137.187 36.6026 135.74 40.3826 134.667 44.3026C135.88 43.3226 137.257 42.086 138.797 40.5926C140.337 39.0993 141.9 37.4893 143.487 35.7626C145.074 33.9893 146.637 32.1693 148.177 30.3026C149.717 28.436 151.07 26.616 152.237 24.8426C153.45 23.0693 154.407 21.4126 155.107 19.8726C155.854 18.3326 156.227 17.0493 156.227 16.0226ZM146.287 19.3826C146.287 18.6826 145.96 17.936 145.307 17.1426C144.7 16.3026 143.65 15.8826 142.157 15.8826C141.13 15.8826 139.964 16.1626 138.657 16.7226C137.397 17.2826 135.95 18.6126 134.317 20.7126C133.617 21.646 132.8 22.8126 131.867 24.2126C130.934 25.6126 129.977 27.1526 128.997 28.8326C128.017 30.5126 127.06 32.2626 126.127 34.0826C125.194 35.856 124.354 37.606 123.607 39.3326C122.907 41.0126 122.324 42.5993 121.857 44.0926C121.437 45.5393 121.227 46.7526 121.227 47.7326C121.227 49.3193 121.95 50.1126 123.397 50.1126C124.61 50.1126 125.894 49.8093 127.247 49.2026C128.6 48.5493 130 47.7093 131.447 46.6826C131.634 45.656 132.077 44.2326 132.777 42.4126C133.524 40.5926 134.504 38.516 135.717 36.1826C136.977 33.8493 138.447 31.3526 140.127 28.6926C141.854 26.0326 143.814 23.3493 146.007 20.6426C146.1 20.4093 146.17 20.176 146.217 19.9426C146.264 19.6626 146.287 19.476 146.287 19.3826ZM167.221 43.1126C166.428 44.0926 165.471 45.1193 164.351 46.1926C163.278 47.2193 162.088 48.176 160.781 49.0626C159.521 49.9026 158.191 50.6026 156.791 51.1626C155.438 51.676 154.085 51.9326 152.731 51.9326C150.538 51.9326 149.441 50.9526 149.441 48.9926C149.441 47.686 149.768 46.286 150.421 44.7926C151.121 43.2526 152.008 41.8526 153.081 40.5926C154.155 39.286 155.321 38.2126 156.581 37.3726C157.888 36.486 159.125 36.0426 160.291 36.0426C160.945 36.0426 161.388 36.1593 161.621 36.3926C161.901 36.626 162.041 36.9293 162.041 37.3026C162.041 37.8626 161.855 38.4693 161.481 39.1226C161.155 39.776 160.641 40.406 159.941 41.0126C159.241 41.5726 158.355 42.0626 157.281 42.4826C156.208 42.856 154.925 43.0426 153.431 43.0426C153.198 43.4626 152.941 44.1393 152.661 45.0726C152.381 45.9593 152.241 46.8693 152.241 47.8026C152.241 49.716 153.105 50.6726 154.831 50.6726C155.905 50.6726 157.001 50.416 158.121 49.9026C159.288 49.3893 160.408 48.7593 161.481 48.0126C162.555 47.2193 163.535 46.3793 164.421 45.4926C165.355 44.5593 166.125 43.696 166.731 42.9026C166.825 42.8093 166.918 42.786 167.011 42.8326C167.151 42.8793 167.221 42.9726 167.221 43.1126ZM159.871 37.6526C159.871 37.046 159.568 36.7426 158.961 36.7426C158.495 36.7426 158.005 36.9293 157.491 37.3026C157.025 37.6293 156.558 38.0726 156.091 38.6326C155.625 39.1926 155.181 39.7993 154.761 40.4526C154.341 41.106 153.991 41.736 153.711 42.3426C153.805 42.3893 153.968 42.436 154.201 42.4826C154.435 42.4826 154.621 42.4826 154.761 42.4826C156.115 42.4826 157.305 42.016 158.331 41.0826C159.358 40.1026 159.871 38.9593 159.871 37.6526Z" fill="black"/>
</svg>
