<svg width="103" height="107" viewBox="0 0 103 107" fill="none" xmlns="http://www.w3.org/2000/svg">
<path d="M55.2874 88.373C48.8597 83.3275 42.018 79.0251 33.8843 82.2707C31.2791 83.3596 28.9496 84.8036 26.2478 85.2323C23.2276 84.7958 20.2251 84.555 17.2926 84.6564C27.6823 80.2458 37.6669 74.3631 46.4685 67.1754C46.5462 67.1905 46.6298 67.1833 46.711 67.1387C52.0128 64.1678 57.3495 63.6581 63.0833 63.7522C64.1263 64.2792 65.0987 64.958 66.1576 65.6163C71.8048 69.0103 77.8002 73.0838 84.6948 70.9718C92.0219 68.7357 97.3388 60.5136 102.155 54.9302C94.2114 56.0928 86.3986 52.2214 78.495 53.5279C71.7546 54.6116 67.1687 59.8496 61.1384 62.2598C57.3318 62.2481 53.437 62.6093 50.019 64.1515C54.0007 60.6024 57.6932 56.7671 61.0174 52.664C63.1143 50.8269 64.9966 48.7596 67.1393 47.0723C73.2534 42.2138 79.8199 38.945 82.372 30.8837C85.2136 21.6464 83.2532 10.3383 83.7864 0.662827C80.3967 4.12338 77.6463 8.18241 74.7096 12.1373C67.4942 21.3679 60.1766 29.6893 60.5262 41.923C60.634 44.4224 61.3697 48.5001 60.565 51.2758C53.574 59.8334 45.056 66.9532 35.6761 72.9273C37.0704 70.6144 38.0026 67.9294 38.6114 65.0827C38.96 64.7026 39.3022 64.3273 39.6111 63.9395C49.7792 53.56 44.0856 41.7508 40.5172 29.1818C39.1212 36.9139 31.9956 42.0599 32.269 50.7258C32.547 55.749 35.6469 60.076 36.6991 64.8338C35.9106 68.4861 34.6229 71.9346 32.4401 74.9291C24.162 79.8771 15.2977 83.9959 6.28414 87.4793C7.41715 85.8454 8.32562 84.115 9.05307 82.3084C9.82953 81.8749 10.6275 81.4344 11.3609 81.0146C28.4793 71.4725 19.267 54.4162 17.4984 38.8377C15.9251 42.0944 14.1244 45.1037 12.1392 48.0093C7.42373 55.5918 1.86004 62.9474 4.38231 72.3789C5.15084 75.0876 7.29154 77.86 7.90536 80.6487C7.14617 83.1608 6.16149 85.6299 4.71406 88.0078C4.69799 88.034 4.69596 88.0601 4.68504 88.087C3.25625 88.6263 1.82308 89.1558 0.389437 89.6654C-0.069068 89.8286 0.118582 90.5247 0.597029 90.3968C5.15382 89.1856 9.7154 87.6847 14.2157 85.9111C18.3907 86.0806 22.4676 86.4539 26.5616 87.1002C27.3107 88.0293 27.8314 89.1493 28.3836 90.3903C31.4067 96.0896 32.8974 104.096 40.0736 106.275C47.5792 108.515 60.2804 101.007 66.9492 97.5542C62.9912 94.6162 59.1396 91.4944 55.2874 88.373Z" fill="white"/>
</svg>
