<svg width="82" height="174" viewBox="0 0 82 174" fill="none" xmlns="http://www.w3.org/2000/svg">
<path d="M28.389 6.09731C21.6518 12.8344 21.5546 23.6971 28.0972 30.5533L35.0083 37.4682V44.3361C35.0083 47.5162 37.5862 50.0941 40.7663 50.0941C43.9463 50.0941 46.5242 47.5162 46.5242 44.3361L46.5242 37.4682L53.4354 30.5533C59.978 23.6971 59.8807 12.8344 53.1436 6.09731C46.3078 -0.738492 35.2248 -0.738492 28.389 6.09731Z" fill="white"/>
<path d="M79.8636 64.3749C75.8099 72.9887 65.6306 76.7563 56.9708 72.9257L50.6284 69.943C48.719 69.0451 46.5242 70.4383 46.5242 72.5483L46.5242 83.1982C46.5242 86.3783 43.9463 88.9562 40.7663 88.9562C37.5862 88.9562 35.0083 86.3783 35.0083 83.1982V72.5483C35.0083 70.4383 32.8135 69.0451 30.9041 69.9431L24.5618 72.9257C15.902 76.7563 5.72269 72.9887 1.66898 64.3749C-2.44411 55.6351 1.30665 45.2157 10.0465 41.1026C18.6603 37.0489 28.9054 40.6336 33.1369 49.1048L38.1617 59.7745C39.1992 61.9776 42.3333 61.9776 43.3709 59.7745L48.3957 49.1048C52.6272 40.6336 62.8723 37.0489 71.4861 41.1026C80.2259 45.2157 83.9767 55.6351 79.8636 64.3749Z" fill="white"/>
<path d="M56.9708 115.823C65.6306 119.653 75.8099 115.885 79.8636 107.272C83.9767 98.5319 80.2259 88.1125 71.4861 83.9994C62.8723 79.9457 52.6272 83.5304 48.3957 92.0016L43.3709 102.671C42.3333 104.874 39.1992 104.874 38.1617 102.671L33.1369 92.0016C28.9054 83.5304 18.6603 79.9457 10.0465 83.9994C1.30665 88.1125 -2.44411 98.5319 1.66898 107.272C5.72269 115.885 15.902 119.653 24.5618 115.823L30.9041 112.84C32.8135 111.942 35.0083 113.335 35.0083 115.445V126.095C35.0083 129.275 37.5862 131.853 40.7663 131.853C43.9463 131.853 46.5242 129.275 46.5242 126.095L46.5242 115.445C46.5242 113.335 48.719 111.942 50.6284 112.84L56.9708 115.823Z" fill="white"/>
<path d="M56.9708 157.28C65.6306 161.11 75.8099 157.343 79.8636 148.729C83.9767 139.989 80.2259 129.57 71.4861 125.457C62.8723 121.403 52.6272 124.988 48.3957 133.459L43.3709 144.129C42.3333 146.332 39.1992 146.332 38.1617 144.129L33.1369 133.459C28.9054 124.988 18.6603 121.403 10.0465 125.457C1.30665 129.57 -2.44411 139.989 1.66898 148.729C5.72269 157.343 15.902 161.11 24.5618 157.28L30.9041 154.297C32.8135 153.399 35.0083 154.792 35.0083 156.902V167.552C35.0083 170.732 37.5862 173.31 40.7663 173.31C43.9463 173.31 46.5242 170.732 46.5242 167.552L46.5242 156.902C46.5242 154.792 48.719 153.399 50.6284 154.297L56.9708 157.28Z" fill="white"/>
</svg>
