<svg width="12" height="12" viewBox="0 0 12 12" fill="none" xmlns="http://www.w3.org/2000/svg">
<path d="M11.6569 10.2426L7.41421 6L11.6569 1.75736C11.8444 1.56983 11.9497 1.31547 11.9497 1.05026C11.9497 0.785039 11.8444 0.530685 11.6569 0.343149C11.4693 0.155612 11.215 0.0502557 10.9497 0.0502558C10.6845 0.0502558 10.4302 0.155612 10.2426 0.343149L6 4.58579L1.75736 0.343149C1.56982 0.155612 1.31547 0.0502558 1.05025 0.0502558C0.785036 0.0502557 0.530682 0.155612 0.343146 0.343149C0.155609 0.530685 0.0502528 0.785039 0.0502529 1.05026C0.050253 1.31547 0.155609 1.56983 0.343146 1.75736L4.58579 6L0.343146 10.2426C0.155609 10.4302 0.0502522 10.6845 0.0502522 10.9498C0.0502522 11.215 0.15561 11.4693 0.343146 11.6569C0.530682 11.8444 0.785036 11.9498 1.05025 11.9498C1.31547 11.9498 1.56982 11.8444 1.75736 11.6569L6 7.41422L10.2426 11.6569C10.4302 11.8444 10.6845 11.9498 10.9497 11.9498C11.215 11.9498 11.4693 11.8444 11.6569 11.6569C11.8444 11.4693 11.9497 11.215 11.9497 10.9498C11.9497 10.6845 11.8444 10.4302 11.6569 10.2426Z" fill="black"/>
</svg>
