<svg width="208" height="42" viewBox="0 0 208 42" fill="none" xmlns="http://www.w3.org/2000/svg">
<path d="M11.7215 3.6911C11.0341 3.6911 10.4995 2.13809 6.52785 2.13809C4.66933 2.13809 3.34545 2.97824 3.34545 4.35304C3.34545 7.96826 13.0709 6.13519 13.0709 11.6344C13.0709 15.2241 10.4231 17.1845 6.62969 17.1845C3.80371 17.1845 2.09794 16.2425 1.18141 15.937C0.8759 15.8352 0.51947 15.6824 0.51947 15.3005C0.51947 14.7913 0.748603 13.6711 0.748603 12.6018C0.748603 12.1945 0.926818 11.9908 1.18141 11.9908C1.436 11.9908 1.66514 12.3472 1.99611 12.831C2.60713 13.722 4.33836 15.1478 6.60423 15.1478C8.8701 15.1478 10.4995 14.0785 10.525 12.2963C10.5504 8.29923 0.85044 10.2087 0.85044 4.42942C0.85044 1.95987 3.16723 -0.000488281 6.62969 -0.000488281C9.30291 -0.000488281 10.5759 0.177726 11.2887 0.279563C11.5433 0.305022 11.7725 0.483237 11.7725 0.839667C11.7725 1.67982 12.0271 2.5709 12.0271 3.33467C12.0271 3.53835 11.9252 3.6911 11.7215 3.6911Z" fill="black"/>
<path d="M18.2974 8.42652H24.8913C25.1459 8.42652 25.2987 8.42652 25.2987 8.65566C25.2987 8.93571 25.1459 9.34306 24.9677 9.8777C24.7895 10.4123 24.5349 10.8452 24.2803 10.8452C23.822 10.8452 23.0328 10.4378 21.8108 10.4378H18.2974C18.0937 10.4378 17.9664 10.5396 17.9664 10.7688C17.9664 12.4236 18.0428 14.0276 18.0428 14.5113C18.0428 14.7913 18.1955 14.9186 18.4247 14.9186H23.0837C26.2152 14.9186 27.2845 13.9003 27.7428 13.9003C27.921 13.9003 28.0483 13.9766 28.0483 14.2312C28.0483 14.5877 27.6664 15.8097 27.5136 16.5226C27.4373 16.879 27.2336 16.9299 26.9281 16.9299H16.0315C15.6751 16.9299 15.4205 16.7517 15.4205 16.3443C15.4205 15.4024 15.6242 13.2129 15.6242 8.88479C15.6242 4.27667 15.4205 2.11263 15.4205 0.865126C15.4205 0.457778 15.6751 0.279563 16.0315 0.279563H27.2081C27.4627 0.279563 27.59 0.3814 27.59 0.508696C27.59 0.788749 27.4373 1.1961 27.259 1.73074C27.0808 2.26538 26.7753 2.95278 26.5207 2.95278C26.0625 2.95278 25.0695 2.29084 23.3383 2.29084H18.5011C18.1955 2.29084 18.0428 2.4436 18.0428 2.74911C18.0428 3.84386 17.9664 6.21157 17.9664 8.09555C17.9664 8.32469 18.0937 8.42652 18.2974 8.42652Z" fill="black"/>
<path d="M42.9197 8.5029C42.9197 3.131 42.6651 1.29793 42.6651 0.865126C42.6651 0.457778 42.9197 0.279563 43.2761 0.279563H44.7782C45.1346 0.279563 45.3892 0.457778 45.3892 0.865126C45.3892 1.29793 45.1855 3.15646 45.1855 8.5029C45.1855 12.8055 45.1346 15.7333 45.1346 16.1661C45.1346 16.7008 45.1601 17.21 43.7853 17.21C43.5052 17.21 43.3016 17.0827 43.0724 16.8281C41.7485 15.2496 34.9509 6.61892 33.2706 4.48034C33.1433 4.30212 33.0415 4.14937 32.8887 4.14937C32.736 4.14937 32.736 4.27667 32.736 4.40396C32.736 4.40396 32.6596 6.89897 32.6596 8.5029C32.6596 12.8055 32.9142 15.9115 32.9142 16.3443C32.9142 16.7517 32.6596 16.9299 32.3032 16.9299H30.8011C30.4446 16.9299 30.19 16.7517 30.19 16.3443C30.19 15.9115 30.3937 12.831 30.3937 8.5029C30.3937 4.17483 30.19 1.29793 30.19 0.865126C30.19 0.457778 30.4446 0.279563 30.8011 0.279563H32.3032C32.736 0.279563 33.1433 0.432319 33.4743 0.890585C35.1291 3.131 39.7627 8.98663 42.5378 12.6018C42.6651 12.7546 42.716 12.8055 42.7924 12.8055C42.8687 12.8055 42.9197 12.7291 42.9197 12.6018V8.5029Z" fill="black"/>
<path d="M56.8859 -0.000488281C58.5916 -0.000488281 60.1192 0.432319 61.0357 0.916045C61.6213 1.22156 61.9777 1.52707 61.9777 1.85804C61.9777 2.4436 61.9522 3.51289 61.7995 4.12391C61.7231 4.3785 61.5958 4.55672 61.4176 4.55672C61.1885 4.55672 61.0612 4.42942 60.7811 4.04753C60.1956 3.2583 58.8462 2.13809 57.0131 2.13809C52.6087 2.13809 50.0119 5.01498 50.0119 9.1903C50.0119 12.9583 52.5578 15.0714 56.7076 15.0714C59.2536 15.0714 60.4247 14.1039 61.3158 13.3147C61.774 12.9074 61.8504 12.831 62.0286 12.831C62.3596 12.831 63.0724 14.2312 63.0724 14.6386C63.0724 14.8677 62.9706 15.0205 62.4614 15.4024C61.4685 16.1407 59.7627 17.1845 56.2239 17.1845C51.4121 17.1845 47.2623 14.2822 47.2623 9.13938C47.2623 4.40396 50.852 -0.000488281 56.8859 -0.000488281Z" fill="black"/>
<path d="M67.8236 8.42652H74.4175C74.6721 8.42652 74.8249 8.42652 74.8249 8.65566C74.8249 8.93571 74.6721 9.34306 74.4939 9.8777C74.3157 10.4123 74.0611 10.8452 73.8065 10.8452C73.3482 10.8452 72.559 10.4378 71.337 10.4378H67.8236C67.6199 10.4378 67.4926 10.5396 67.4926 10.7688C67.4926 12.4236 67.569 14.0276 67.569 14.5113C67.569 14.7913 67.7217 14.9186 67.9509 14.9186H72.6099C75.7414 14.9186 76.8107 13.9003 77.269 13.9003C77.4472 13.9003 77.5745 13.9766 77.5745 14.2312C77.5745 14.5877 77.1926 15.8097 77.0398 16.5226C76.9635 16.879 76.7598 16.9299 76.4543 16.9299H65.5577C65.2013 16.9299 64.9467 16.7517 64.9467 16.3443C64.9467 15.4024 65.1504 13.2129 65.1504 8.88479C65.1504 4.27667 64.9467 2.11263 64.9467 0.865126C64.9467 0.457778 65.2013 0.279563 65.5577 0.279563H76.7343C76.9889 0.279563 77.1162 0.3814 77.1162 0.508696C77.1162 0.788749 76.9635 1.1961 76.7852 1.73074C76.607 2.26538 76.3015 2.95278 76.0469 2.95278C75.5887 2.95278 74.5957 2.29084 72.8645 2.29084H68.0273C67.7217 2.29084 67.569 2.4436 67.569 2.74911C67.569 3.84386 67.4926 6.21157 67.4926 8.09555C67.4926 8.32469 67.6199 8.42652 67.8236 8.42652Z" fill="black"/>
<path d="M88.3724 9.72495C88.2451 9.80132 88.1687 9.85224 88.1687 9.95408C88.1687 10.0559 88.2451 10.1578 88.3469 10.285C89.9254 12.3982 90.6892 13.5438 92.8787 15.6824C93.0823 15.8861 93.5406 16.1916 93.5406 16.5226C93.5406 16.7262 93.4388 16.9299 93.1333 16.9299H90.6637C90.1291 16.9299 90.0272 16.7262 89.5944 16.1407C88.4742 14.6386 88.1178 13.6711 86.1065 11.3034C85.9283 11.0743 85.7501 10.9215 85.6228 10.9215C85.4955 10.9215 83.1278 11.6853 82.7459 11.8635C82.4658 11.9908 82.2876 12.1181 82.2876 12.4236C82.2876 14.0276 82.3895 15.9115 82.3895 16.3443C82.3895 16.7517 82.1349 16.9299 81.7784 16.9299H80.2763C79.9199 16.9299 79.6653 16.7517 79.6653 16.3443C79.6653 15.9115 79.869 13.2129 79.869 8.88479C79.869 4.27667 79.6653 2.11263 79.6653 0.865126C79.6653 0.457778 79.9199 0.279563 80.2763 0.279563H86.5648C90.1545 0.279563 92.3186 1.45069 92.3186 4.6331C92.3186 6.89897 90.5619 8.32469 88.3724 9.72495ZM82.2876 9.41943C82.2876 9.69949 82.4658 9.72494 82.6695 9.67403C82.6695 9.67403 85.19 8.98663 86.7939 8.07009C88.3978 7.15356 89.7981 5.8806 89.7981 4.53126C89.7981 3.30921 88.6779 2.29084 86.9976 2.29084H82.7459C82.4404 2.29084 82.2876 2.4436 82.2876 2.74911V9.41943Z" fill="black"/>
<path d="M104.186 0.635992C104.568 1.50161 107.725 8.60474 109.711 12.9074C110.373 14.3585 111.086 15.5551 111.442 16.2425C111.467 16.3189 111.569 16.5226 111.569 16.6499C111.569 16.8281 111.467 16.9299 111.238 16.9299H108.947C108.769 16.9299 108.591 16.8026 108.514 16.4716C108.336 15.7588 108.005 14.8677 107.649 14.0785C107.521 13.7984 107.292 13.6711 107.114 13.6711H99.1707C98.9925 13.6711 98.7633 13.7984 98.636 14.0785C98.2796 14.8677 97.9486 15.7588 97.7704 16.4716C97.694 16.8026 97.5158 16.9299 97.3376 16.9299H95.0463C94.8172 16.9299 94.7153 16.8281 94.7153 16.6499C94.7153 16.5226 94.8172 16.3189 94.8426 16.2425C95.199 15.5551 95.9119 14.3585 96.5738 12.9074C98.5597 8.60474 101.742 1.50161 102.124 0.635992C102.379 0.0504296 102.582 -0.000488281 103.142 -0.000488281C103.702 -0.000488281 103.906 0.0504296 104.186 0.635992ZM100.113 11.3798H106.172C106.35 11.3798 106.452 11.278 106.452 11.1761C106.452 10.8452 104.364 6.4407 103.448 4.30212C103.321 4.02207 103.27 3.89478 103.142 3.89478C103.015 3.89478 102.964 4.02207 102.837 4.30212C101.92 6.4407 99.8326 10.8452 99.8326 11.1761C99.8326 11.278 99.9345 11.3798 100.113 11.3798Z" fill="black"/>
<path d="M121.92 11.7617C121.92 12.8564 121.971 15.9115 121.971 16.3443C121.971 16.7517 121.716 16.9299 121.36 16.9299H119.858C119.501 16.9299 119.247 16.7517 119.247 16.3443C119.247 15.9115 119.45 12.831 119.45 8.5029C119.45 4.20029 119.247 1.29793 119.247 0.865126C119.247 0.457778 119.501 0.279563 119.858 0.279563H121.36C121.716 0.279563 121.971 0.457778 121.971 0.865126C121.971 1.27247 121.792 4.22575 121.792 8.98663C121.792 9.1903 121.869 9.29214 122.072 9.29214C123.014 9.34306 124.491 9.36852 126.63 9.36852C128.768 9.36852 130.245 9.34306 131.187 9.29214C131.391 9.29214 131.467 9.1903 131.467 8.98663C131.467 4.20029 131.238 1.29793 131.238 0.865126C131.238 0.457778 131.492 0.279563 131.849 0.279563H133.351C133.707 0.279563 133.962 0.457778 133.962 0.865126C133.962 1.29793 133.758 4.20029 133.758 8.5029C133.758 12.831 133.962 15.9115 133.962 16.3443C133.962 16.7517 133.707 16.9299 133.351 16.9299H131.849C131.492 16.9299 131.238 16.7517 131.238 16.3443C131.238 15.9115 131.34 12.831 131.34 11.7617C131.34 11.558 131.263 11.4562 131.06 11.4562C130.118 11.4053 128.768 11.3798 126.63 11.3798C124.491 11.3798 123.142 11.4053 122.2 11.4562C121.996 11.4562 121.92 11.558 121.92 11.7617Z" fill="black"/>
<path d="M139.676 8.42652H146.27C146.525 8.42652 146.678 8.42652 146.678 8.65566C146.678 8.93571 146.525 9.34306 146.347 9.8777C146.168 10.4123 145.914 10.8452 145.659 10.8452C145.201 10.8452 144.412 10.4378 143.19 10.4378H139.676C139.473 10.4378 139.345 10.5396 139.345 10.7688C139.345 12.4236 139.422 14.0276 139.422 14.5113C139.422 14.7913 139.575 14.9186 139.804 14.9186H144.463C147.594 14.9186 148.663 13.9003 149.122 13.9003C149.3 13.9003 149.427 13.9766 149.427 14.2312C149.427 14.5877 149.045 15.8097 148.893 16.5226C148.816 16.879 148.613 16.9299 148.307 16.9299H137.41C137.054 16.9299 136.799 16.7517 136.799 16.3443C136.799 15.4024 137.003 13.2129 137.003 8.88479C137.003 4.27667 136.799 2.11263 136.799 0.865126C136.799 0.457778 137.054 0.279563 137.41 0.279563H148.587C148.842 0.279563 148.969 0.3814 148.969 0.508696C148.969 0.788749 148.816 1.1961 148.638 1.73074C148.46 2.26538 148.154 2.95278 147.9 2.95278C147.441 2.95278 146.449 2.29084 144.717 2.29084H139.88C139.575 2.29084 139.422 2.4436 139.422 2.74911C139.422 3.84386 139.345 6.21157 139.345 8.09555C139.345 8.32469 139.473 8.42652 139.676 8.42652Z" fill="black"/>
<path d="M159.779 0.635992C160.161 1.50161 163.318 8.60474 165.303 12.9074C165.965 14.3585 166.678 15.5551 167.035 16.2425C167.06 16.3189 167.162 16.5226 167.162 16.6499C167.162 16.8281 167.06 16.9299 166.831 16.9299H164.54C164.361 16.9299 164.183 16.8026 164.107 16.4716C163.929 15.7588 163.598 14.8677 163.241 14.0785C163.114 13.7984 162.885 13.6711 162.707 13.6711H154.763C154.585 13.6711 154.356 13.7984 154.229 14.0785C153.872 14.8677 153.541 15.7588 153.363 16.4716C153.287 16.8026 153.109 16.9299 152.93 16.9299H150.639C150.41 16.9299 150.308 16.8281 150.308 16.6499C150.308 16.5226 150.41 16.3189 150.435 16.2425C150.792 15.5551 151.505 14.3585 152.167 12.9074C154.152 8.60474 157.335 1.50161 157.717 0.635992C157.971 0.0504296 158.175 -0.000488281 158.735 -0.000488281C159.295 -0.000488281 159.499 0.0504296 159.779 0.635992ZM155.705 11.3798H161.765C161.943 11.3798 162.045 11.278 162.045 11.1761C162.045 10.8452 159.957 6.4407 159.041 4.30212C158.913 4.02207 158.862 3.89478 158.735 3.89478C158.608 3.89478 158.557 4.02207 158.429 4.30212C157.513 6.4407 155.425 10.8452 155.425 11.1761C155.425 11.278 155.527 11.3798 155.705 11.3798Z" fill="black"/>
<path d="M171.644 14.5113C171.669 14.7913 171.796 14.9186 172.026 14.9186H175.157C178.288 14.9186 179.358 13.9003 179.816 13.9003C179.994 13.9003 180.122 13.9766 180.122 14.2312C180.122 14.5877 179.74 15.8097 179.587 16.5226C179.511 16.879 179.307 17.0572 179.001 17.0572C178.441 17.0572 178.136 16.9299 177.168 16.9299H169.632C169.276 16.9299 169.021 16.7517 169.021 16.3443C169.021 15.9115 169.225 12.831 169.225 8.5029C169.225 4.17483 169.021 1.29793 169.021 0.865126C169.021 0.457778 169.276 0.279563 169.632 0.279563H171.134C171.491 0.279563 171.745 0.457778 171.745 0.865126C171.745 1.29793 171.542 4.20029 171.542 8.5029C171.542 12.8055 171.618 14.0785 171.644 14.5113Z" fill="black"/>
<path d="M184.931 8.5029C184.931 12.8055 185.134 15.9115 185.134 16.3443C185.134 16.7517 184.88 16.9299 184.523 16.9299H183.021C182.665 16.9299 182.41 16.7517 182.41 16.3443C182.41 15.9115 182.614 12.831 182.614 8.5029C182.614 5.90606 182.614 3.94569 182.486 2.59635C182.461 2.3163 182.232 2.16355 181.85 2.16355H179.864C178.133 2.16355 177.344 2.95278 176.936 2.95278C176.758 2.95278 176.656 2.80003 176.656 2.59635C176.656 2.16355 176.936 1.60344 177.14 0.635992C177.191 0.406859 177.267 0.279563 177.522 0.279563H189.997C190.252 0.279563 190.328 0.406859 190.379 0.635992C190.583 1.60344 190.863 2.16355 190.863 2.59635C190.863 2.80003 190.761 2.95278 190.583 2.95278C190.175 2.95278 189.386 2.16355 187.655 2.16355H185.618C185.312 2.16355 185.083 2.3163 185.058 2.59635C184.931 3.94569 184.931 5.90606 184.931 8.5029Z" fill="black"/>
<path d="M195.438 11.7617C195.438 12.8564 195.489 15.9115 195.489 16.3443C195.489 16.7517 195.235 16.9299 194.878 16.9299H193.376C193.02 16.9299 192.765 16.7517 192.765 16.3443C192.765 15.9115 192.969 12.831 192.969 8.5029C192.969 4.20029 192.765 1.29793 192.765 0.865126C192.765 0.457778 193.02 0.279563 193.376 0.279563H194.878C195.235 0.279563 195.489 0.457778 195.489 0.865126C195.489 1.27247 195.311 4.22575 195.311 8.98663C195.311 9.1903 195.387 9.29214 195.591 9.29214C196.533 9.34306 198.01 9.36852 200.148 9.36852C202.287 9.36852 203.763 9.34306 204.705 9.29214C204.909 9.29214 204.986 9.1903 204.986 8.98663C204.986 4.20029 204.756 1.29793 204.756 0.865126C204.756 0.457778 205.011 0.279563 205.367 0.279563H206.869C207.226 0.279563 207.481 0.457778 207.481 0.865126C207.481 1.29793 207.277 4.20029 207.277 8.5029C207.277 12.831 207.481 15.9115 207.481 16.3443C207.481 16.7517 207.226 16.9299 206.869 16.9299H205.367C205.011 16.9299 204.756 16.7517 204.756 16.3443C204.756 15.9115 204.858 12.831 204.858 11.7617C204.858 11.558 204.782 11.4562 204.578 11.4562C203.636 11.4053 202.287 11.3798 200.148 11.3798C198.01 11.3798 196.66 11.4053 195.718 11.4562C195.515 11.4562 195.438 11.558 195.438 11.7617Z" fill="black"/>
<path fill-rule="evenodd" clip-rule="evenodd" d="M62.6208 38.4155C62.6208 38.4831 62.6208 38.4831 62.6208 38.4155C62.7561 38.5508 62.8913 38.6184 62.959 38.6184C63.1618 38.6184 63.3647 38.4155 63.3647 38.2126V27.866C63.3647 27.6631 63.1618 27.4602 62.959 27.4602C62.7561 27.4602 62.5532 27.6631 62.5532 27.866V37.063L55.723 27.5954C55.5878 27.3926 55.3849 27.3926 55.182 27.5278C55.0468 27.6631 54.9792 27.7983 55.0468 27.9336V38.2803C55.0468 38.4831 55.2497 38.686 55.4525 38.686C55.6554 38.686 55.8583 38.4831 55.8583 38.2803V29.0832L62.6208 38.4155ZM73.4409 30.7738C73.238 30.7738 73.0351 30.9091 73.0351 31.1796V32.3292C72.3589 31.3825 71.2769 30.7738 70.0596 30.7738C67.9632 30.7738 66.3402 32.5321 66.3402 34.6961C66.3402 36.8601 67.9632 38.6184 70.0596 38.6184C71.2769 38.6184 72.3589 38.0097 73.0351 37.063V38.2126C73.0351 38.4155 73.238 38.6184 73.4409 38.6184C73.6438 38.6184 73.8466 38.4155 73.8466 38.2126V31.112C73.8466 30.9091 73.6438 30.7738 73.4409 30.7738ZM70.1272 37.8745C68.5042 37.8745 67.1517 36.4544 67.1517 34.6961C67.1517 32.9378 68.5042 31.5177 70.1272 31.5177C71.7503 31.5177 73.1028 32.9378 73.1028 34.6961C73.1028 36.4544 71.7503 37.8745 70.1272 37.8745ZM79.5948 30.7738H78.5804V27.866C78.5804 27.6631 78.3775 27.4602 78.1747 27.4602C77.9718 27.4602 77.7689 27.6631 77.7689 27.866V30.7738H76.7545C76.3488 30.7738 76.3488 30.9767 76.3488 31.1796C76.3488 31.3825 76.3488 31.5853 76.7545 31.5853H77.7689V37.3335C77.7689 38.145 78.3775 38.686 79.1214 38.686C79.3243 38.686 79.5272 38.4831 79.5272 38.2803C79.5272 38.0774 79.3243 37.8745 79.1214 37.8745C78.9185 37.8745 78.5128 37.6716 78.5128 37.2659V31.5177H79.5272C79.73 31.5177 79.9329 31.3148 79.9329 31.112C79.9329 30.9091 79.73 30.7738 79.5948 30.7738ZM83.4494 35.44C83.4494 37.1982 84.8696 38.686 86.6278 38.686C88.4537 38.686 89.8738 37.2659 89.8738 35.44V31.112C89.8738 30.9091 89.671 30.7062 89.4681 30.7062C89.2652 30.7062 89.0623 30.8415 89.0623 31.112V35.44C89.0623 36.7925 87.9803 37.8745 86.6278 37.8745C85.2753 37.8745 84.1933 36.7925 84.1933 35.44V31.112C84.1933 30.9091 83.9904 30.7062 83.7876 30.7062C83.5847 30.7062 83.3818 30.8415 83.3818 31.112V35.44H83.4494ZM93.458 38.2803C93.458 38.4831 93.6609 38.686 93.8637 38.686C94.0666 38.686 94.2019 38.5508 94.2019 38.2803V34.8314C94.2019 34.8314 94.2019 34.7637 94.2019 34.6961C94.3371 34.358 94.6076 33.5465 95.1486 32.8702C95.6896 32.194 96.4335 31.5853 97.4479 31.5853C97.6508 31.5853 97.8536 31.3825 97.8536 31.1796C97.8536 30.9767 97.6508 30.7738 97.4479 30.7738C95.9601 30.7738 94.8781 31.7882 94.2695 32.735C94.2019 32.8026 94.2019 32.8702 94.1342 32.9379V31.1796C94.1342 30.9767 93.9314 30.7738 93.7961 30.7738C93.5932 30.7738 93.3904 30.9091 93.3904 31.1796V38.2803H93.458ZM99.7471 34.6961C99.7471 36.8601 101.438 38.6184 103.467 38.6184C105.563 38.6184 107.186 36.7925 107.186 34.6961C107.186 32.5321 105.563 30.7738 103.467 30.7738C101.438 30.7738 99.7471 32.5997 99.7471 34.6961ZM100.559 34.6961C100.559 32.9378 101.911 31.5177 103.534 31.5177C105.157 31.5177 106.51 32.9378 106.51 34.6961C106.51 36.4544 105.157 37.8745 103.534 37.8745C101.911 37.8745 100.559 36.4544 100.559 34.6961ZM110.229 41.5939C110.229 41.7968 110.432 41.9996 110.635 41.9996C110.838 41.9996 111.041 41.7968 111.041 41.5939V37.063C111.717 38.0097 112.799 38.6184 114.016 38.6184C116.112 38.6184 117.803 36.8601 117.803 34.6961C117.803 32.5321 116.112 30.7738 114.016 30.7738C112.799 30.7738 111.717 31.3825 111.041 32.3292V31.1796C111.041 30.9767 110.838 30.7738 110.635 30.7738C110.432 30.7738 110.229 30.9767 110.229 31.1796V34.5609V34.6961V34.8314V41.5939ZM110.973 34.5609C111.041 32.8702 112.393 31.5853 113.948 31.5853C115.639 31.5853 116.992 32.9378 116.992 34.6961C116.992 36.4544 115.639 37.8069 113.948 37.8745C112.325 37.8745 110.973 36.4544 110.973 34.6961V34.5609ZM127.068 30.7738C126.865 30.7738 126.662 30.9091 126.662 31.1796V32.3292C125.986 31.3825 124.904 30.7738 123.687 30.7738C121.59 30.7738 119.967 32.5321 119.967 34.6961C119.967 36.8601 121.59 38.6184 123.687 38.6184C124.904 38.6184 125.986 38.0097 126.662 37.063V38.2126C126.662 38.4155 126.865 38.6184 127.068 38.6184C127.271 38.6184 127.474 38.4155 127.474 38.2126V31.112C127.406 30.9091 127.271 30.7738 127.068 30.7738ZM123.687 37.8745C122.064 37.8745 120.711 36.4544 120.711 34.6961C120.711 32.9378 122.064 31.5177 123.687 31.5177C125.31 31.5177 126.662 32.9378 126.662 34.6961C126.662 36.4544 125.31 37.8745 123.687 37.8745ZM133.154 30.7738H132.14V27.866C132.14 27.6631 131.937 27.4602 131.734 27.4602C131.531 27.4602 131.328 27.6631 131.328 27.866V30.7738H130.314C129.908 30.7738 129.908 30.9767 129.908 31.1796C129.908 31.3825 129.908 31.5853 130.314 31.5853H131.328V37.3335C131.328 38.145 131.937 38.686 132.681 38.686C132.884 38.686 133.086 38.4831 133.086 38.2803C133.086 38.0774 132.884 37.8745 132.681 37.8745C132.478 37.8745 132.072 37.6716 132.072 37.2659V31.5177H133.086C133.289 31.5177 133.492 31.3148 133.492 31.112C133.492 30.9091 133.357 30.7738 133.154 30.7738ZM142.689 38.2803C142.689 38.4831 142.892 38.686 143.095 38.686C143.298 38.686 143.501 38.4831 143.501 38.2803V33.8846C143.501 32.0587 142.013 30.7738 140.187 30.7738C139.173 30.7738 138.294 31.2472 137.685 31.9235V27.7983C137.685 27.5954 137.482 27.3926 137.279 27.3926C137.076 27.3926 136.873 27.5954 136.873 27.7983V33.7494V33.8846V38.2803C136.873 38.3479 136.873 38.3479 136.873 38.4155C136.873 38.4831 136.873 38.4831 136.941 38.5508C137.009 38.6184 137.144 38.686 137.279 38.686H137.347C137.482 38.686 137.55 38.6184 137.617 38.4831C137.617 38.4831 137.617 38.4831 137.617 38.4155C137.617 38.4155 137.617 38.4155 137.617 38.3479V38.2803V33.8846C137.617 32.5321 138.767 31.5853 140.119 31.5853C141.472 31.5853 142.622 32.5321 142.622 33.8846V38.2803H142.689ZM145.868 35.44C145.868 37.1982 147.288 38.6184 149.046 38.686C150.06 38.686 150.872 38.2126 151.481 37.5364V38.0774C151.481 39.7004 150.128 40.9853 148.505 40.9853C148.032 40.9853 147.626 40.85 147.22 40.7148C147.017 40.6471 146.814 40.7148 146.747 40.9176C146.679 41.1205 146.747 41.3234 146.882 41.4586C147.355 41.6615 147.896 41.7968 148.505 41.7968C150.601 41.7968 152.224 40.1738 152.224 38.145V35.7105V35.5752V31.3148C152.224 31.2472 152.224 31.1796 152.157 31.1796C152.157 31.112 152.089 31.112 152.089 31.0443C152.022 31.0443 151.954 30.9767 151.886 30.9767H151.819H151.751C151.751 30.9767 151.751 30.9767 151.683 30.9767C151.616 30.9767 151.548 31.0443 151.548 31.0443V31.112C151.481 31.1796 151.481 31.2472 151.481 31.3148V35.5752C151.481 36.9277 150.399 38.0098 149.046 38.0098C147.694 38.0098 146.611 36.9277 146.611 35.5752V31.3148C146.611 31.112 146.409 30.9091 146.206 30.9091C146.003 30.9091 145.868 31.0443 145.868 31.3148V35.44Z" fill="black"/>
</svg>
